<svg version="1.2" baseProfile="tiny-ps"
     xmlns="http://www.w3.org/2000/svg"
     viewBox="0 0 800 800">
  <title>Destroyer Kikuzuki Association</title>
  <style>
  circle {
    fill: #008;
  }
  path {
    fill: #fff;
  }
  @media (prefers-color-scheme: dark) {
    circle {
      fill: #fff;
    }
    path {
      fill: #333;
    }
  }
  </style>
  <circle cx="400" cy="400" r="400" />
  <path d="M 358.29,387.37
           C 360.84,387.55 361.28,384.79 358.65,384.49
             202.04,340.01 253.01,231.90 205.00,245.65
             148.33,272.72 210.11,393.25 358.29,387.37 Z
           M 381.89,363.54
           C 383.34,364.69 384.58,363.72 383.76,362.04
             353.90,300.34 354.73,243.16 357.22,193.13
             358.49,138.79 302.23,150.55 305.82,196.53
             311.26,253.84 340.83,322.71 381.89,363.54 Z
           M 368.17,373.25
           C 369.74,373.67 370.46,371.47 368.86,370.73
             297.48,327.06 296.11,249.28 291.82,220.53
             284.02,164.47 242.18,187.05 242.25,231.90
             241.61,272.38 281.30,345.20 368.17,373.25 Z
           M 355.74,404.24
           C 358.11,403.47 357.38,401.13 355.19,401.45
             333.58,403.47 317.77,405.00 294.87,402.20
             275.45,400.85 251.15,393.56 239.36,386.33
             176.99,354.45 193.85,305.95 167.41,320.76
             117.63,356.77 184.19,457.48 355.74,404.24 Z
           M 400.05,146.84
           C 386.00,145.85 372.73,158.39 375.06,187.47
             376.38,231.20 387.23,302.65 398.59,359.60
             398.77,360.38 399.44,360.71 400.05,360.63
             400.66,360.71 401.33,360.38 401.51,359.60
             412.87,302.65 423.85,232.05 425.18,188.32
             427.50,159.23 414.10,145.85 400.05,146.84 Z
           M 339.03,452.96
           C 339.03,452.96 339.03,465.76 339.03,465.76
             339.03,465.76 341.85,465.76 341.85,465.76
             345.95,465.76 348.76,463.32 348.76,459.36
             348.76,455.26 345.95,452.96 341.85,452.96
             341.85,452.96 339.03,452.96 339.03,452.96 Z
           M 331.74,446.44
           C 331.74,446.44 341.47,446.44 341.47,446.44
             350.43,446.44 355.55,451.68 355.55,459.23
             355.55,466.65 350.43,472.15 341.47,472.15
             341.47,472.15 331.74,472.15 331.74,472.15
             331.74,472.15 331.74,446.44 331.74,446.44 Z
           M 310.87,452.83
           C 310.87,452.83 303.45,452.83 303.45,452.83
             303.45,452.83 303.45,446.44 303.45,446.44
             303.45,446.44 325.34,446.44 325.34,446.44
             325.34,446.44 325.34,452.83 325.34,452.83
             325.34,452.83 317.78,452.83 317.78,452.83
             317.78,452.83 317.78,472.02 317.78,472.02
             317.78,472.02 311.00,472.02 311.00,472.02
             311.00,472.02 310.87,452.83 310.87,452.83 Z
           M 276.56,468.31
           C 276.56,468.31 280.40,463.58 280.40,463.58
             282.69,465.53 285.59,466.62 288.60,466.65
             290.52,466.65 291.54,466.01 291.54,464.99
             291.54,464.99 291.54,464.86 291.54,464.86
             291.54,463.71 290.64,463.20 287.19,462.30
             281.94,461.02 277.84,459.61 277.84,454.37
             277.84,449.51 281.55,446.05 287.57,446.05
             291.80,446.05 295.12,447.33 297.81,449.51
             297.81,449.51 294.36,454.50 294.36,454.50
             292.34,452.92 289.87,452.03 287.32,451.94
             285.65,451.94 284.76,452.71 284.76,453.60
             284.76,454.88 285.65,455.39 289.24,456.16
             295.00,457.44 298.45,459.36 298.45,464.09
             298.45,464.09 298.45,464.22 298.45,464.22
             298.45,469.47 294.48,472.54 288.34,472.54
             283.99,472.54 279.76,471.26 276.56,468.31
             276.56,468.31 276.56,468.31 276.56,468.31 Z
           M 250.96,446.56
           C 250.96,446.56 271.31,446.56 271.31,446.56
             271.31,446.56 271.31,452.58 271.31,452.58
             271.31,452.58 257.87,452.58 257.87,452.58
             257.87,452.58 257.87,456.42 257.87,456.42
             257.87,456.42 269.91,456.42 269.91,456.42
             269.91,456.42 269.91,462.04 269.91,462.04
             269.91,462.04 257.87,462.04 257.87,462.04
             257.87,462.04 257.87,466.14 257.87,466.14
             257.87,466.14 271.31,466.14 271.31,466.14
             271.31,466.14 271.31,472.15 271.31,472.15
             271.31,472.15 250.96,472.15 250.96,472.15
             250.96,472.15 250.96,446.56 250.96,446.56
             250.96,446.56 250.96,446.56 250.96,446.56 Z
           M 527.09,467.67
           C 527.09,467.67 537.33,459.61 537.33,459.61
             539.76,457.69 540.79,456.29 540.79,454.75
             540.79,452.96 539.51,451.81 537.72,451.81
             535.92,451.81 534.39,452.96 532.34,455.39
             532.34,455.39 527.22,451.17 527.22,451.17
             530.16,447.33 532.98,445.16 538.23,445.16
             544.25,445.16 548.34,448.87 548.34,454.11
             548.34,458.59 546.04,460.89 541.94,463.84
             541.94,463.84 537.33,467.16 537.33,467.16
             537.33,467.16 548.60,467.16 548.60,467.16
             548.60,467.16 548.60,473.43 548.60,473.43
             548.60,473.43 527.09,473.43 527.09,473.43
             527.09,473.43 527.09,467.67 527.09,467.67 Z
           M 498.54,465.76
           C 498.54,462.30 500.21,460.25 503.15,458.97
             501.10,457.82 499.31,456.03 499.31,452.96
             499.31,448.48 503.54,445.28 509.55,445.28
             515.57,445.28 519.79,448.48 519.79,452.96
             519.90,455.50 518.49,457.86 516.21,458.97
             518.90,460.25 520.82,462.17 520.82,465.63
             520.82,470.74 516.21,473.94 509.55,473.94
             503.15,473.94 498.54,470.62 498.54,465.76
             498.54,465.76 498.54,465.76 498.54,465.76 Z
           M 513.52,464.99
           C 513.52,463.07 511.98,461.92 509.68,461.92
             507.38,461.92 505.84,463.20 505.84,464.86
             505.84,464.86 505.84,464.99 505.84,464.99
             505.84,466.65 507.12,468.19 509.68,468.19
             512.24,468.19 513.52,466.65 513.52,464.99
             513.52,464.99 513.52,464.99 513.52,464.99 Z
           M 513.01,453.86
           C 513.01,452.19 511.73,450.79 509.68,450.79
             507.63,450.79 506.35,452.19 506.35,453.73
             506.35,453.73 506.35,453.86 506.35,453.86
             506.35,455.65 507.63,456.93 509.68,456.93
             511.60,456.93 513.01,455.65 513.01,453.86
             513.01,453.86 513.01,453.86 513.01,453.86 Z
           M 484.33,461.79
           C 482.80,463.29 480.72,464.12 478.57,464.09
             473.45,464.09 469.48,460.64 469.48,455.14
             469.48,449.12 474.09,445.16 480.36,445.16
             484.21,445.16 486.64,446.18 488.69,448.36
             490.61,450.27 491.89,453.47 491.89,458.59
             491.89,467.67 487.53,473.94 479.34,473.94
             475.88,474.04 472.51,472.85 469.87,470.62
             469.87,470.62 473.32,465.37 473.32,465.37
             474.96,466.78 477.05,467.56 479.21,467.55
             483.18,467.55 484.21,463.96 484.33,461.79
             484.33,461.79 484.33,461.79 484.33,461.79 Z
           M 484.46,454.88
           C 484.46,452.71 482.93,451.04 480.62,451.04
             478.32,451.04 476.78,452.71 476.78,454.88
             476.78,456.93 478.32,458.59 480.62,458.59
             482.93,458.59 484.46,456.93 484.46,454.88 Z
           M 453.74,452.58
           C 453.74,452.58 449.26,453.73 449.26,453.73
             449.26,453.73 447.85,447.72 447.85,447.72
             447.85,447.72 455.79,445.41 455.79,445.41
             455.79,445.41 461.29,445.41 461.29,445.41
             461.29,445.41 461.29,473.43 461.29,473.43
             461.29,473.43 453.87,473.43 453.87,473.43
             453.87,473.43 453.74,452.58 453.74,452.58 Z
           M 575.94,455.01
           C 559.62,473.03 591.81,472.66 589.25,487.25
             588.10,493.65 578.50,509.77 574.66,515.78
             558.53,538.61 542.43,555.21 521.29,570.30
             480.03,595.44 449.05,600.21 433.67,591.31
             422.91,585.09 418.32,563.01 417.22,539.90
             412.72,445.85 412.84,442.09 412.84,442.09
             412.84,438.38 413.15,435.52 414.42,433.40
             415.61,431.02 417.75,429.33 419.75,427.88
             419.85,427.81 419.94,427.74 420.04,427.67
             420.44,427.38 420.84,427.10 421.22,426.82
             421.22,426.82 421.16,426.82 421.16,426.82
             428.62,420.88 433.38,411.88 433.38,401.82
             433.38,383.93 418.34,369.42 399.80,369.42
             381.25,369.42 366.21,383.93 366.21,401.82
             366.21,413.67 372.81,424.02 382.64,429.67
             383.84,430.73 384.94,431.93 385.67,433.40
             386.95,435.52 387.25,438.38 387.25,442.09
             387.25,442.09 387.23,444.72 382.88,539.90
             381.83,563.01 377.19,585.09 366.43,591.31
             351.05,600.22 320.07,595.44 278.81,570.30
             257.67,555.21 241.57,538.61 225.44,515.78
             221.60,509.77 212.00,493.65 210.85,487.25
             208.29,472.66 240.48,473.03 224.16,455.01
             203.33,432.00 145.97,374.96 151.26,421.24
             151.26,421.24 151.44,423.58 151.44,423.58
             162.48,551.13 269.57,651.21 400.05,651.21
             400.05,651.21 400.05,651.21 400.05,651.21
             530.53,651.21 637.63,551.13 648.66,423.58
             648.66,423.58 648.84,421.24 648.84,421.24
             654.13,374.96 596.77,432.00 575.94,455.01 Z
           M 399.79,392.67
           C 405.03,392.67 409.28,396.77 409.28,401.82
             409.28,406.87 405.03,410.97 399.79,410.97
             394.56,410.97 390.31,406.88 390.31,401.82
             390.31,396.77 394.56,392.67 399.79,392.67 Z
           M 441.81,387.37
           C 439.26,387.55 438.82,384.79 441.44,384.49
             598.06,340.01 547.09,231.90 595.10,245.65
             651.77,272.72 589.99,393.25 441.81,387.37 Z
           M 418.21,363.54
           C 416.76,364.69 415.52,363.72 416.34,362.04
             446.19,300.34 445.37,243.16 442.88,193.13
             441.61,138.79 497.87,150.55 494.28,196.53
             488.84,253.84 459.27,322.71 418.21,363.54 Z
           M 431.93,373.25
           C 430.36,373.67 429.64,371.47 431.23,370.73
             502.62,327.06 503.99,249.28 508.28,220.53
             516.08,164.47 557.91,187.05 557.85,231.90
             558.49,272.38 518.80,345.20 431.93,373.25 Z
           M 444.36,404.24
           C 441.99,403.47 442.72,401.13 444.91,401.45
             466.52,403.47 482.33,405.00 505.23,402.20
             524.65,400.85 548.94,393.56 560.74,386.33
             623.11,354.45 606.25,305.95 632.69,320.76
             682.47,356.77 615.90,457.48 444.36,404.24 Z" />
</svg>
