<svg xmlns="http://www.w3.org/2000/svg"
     viewBox="0 0 512 512">
  <style>
  path {
    fill: #008;
  }
  @media (prefers-color-scheme: dark) {
    path {
      fill: #fff;
    }
  }
  </style>
  <path d="M 214.29,243.37
           C 216.84,243.55 217.28,240.79 214.65,240.49
             58.04,196.01 109.01,87.90 61.00,101.65
             4.33,128.72 66.11,249.25 214.29,243.37 Z
           M 237.89,219.54
           C 239.34,220.69 240.58,219.72 239.76,218.04
             209.90,156.34 210.73,99.16 213.22,49.13
             214.49,-5.21 158.23,6.55 161.82,52.53
             167.26,109.84 196.83,178.71 237.89,219.54 Z
           M 224.17,229.25
           C 225.74,229.67 226.46,227.47 224.86,226.73
             153.48,183.06 152.11,105.28 147.82,76.53
             140.02,20.47 98.18,43.05 98.25,87.90
             97.61,128.38 137.30,201.20 224.17,229.25 Z
           M 211.74,260.24
           C 214.11,259.47 213.38,257.13 211.19,257.45
             189.58,259.47 173.77,261.00 150.87,258.20
             131.45,256.85 107.15,249.56 95.36,242.33
             32.99,210.45 49.85,161.95 23.41,176.76
             -26.37,212.77 40.19,313.48 211.74,260.24 Z
           M 256.05,2.84
           C 242.00,1.85 228.73,14.39 231.06,43.47
             232.38,87.20 243.23,158.65 254.59,215.60
             254.77,216.38 255.44,216.71 256.05,216.63
             256.66,216.71 257.33,216.38 257.51,215.60
             268.87,158.65 279.85,88.05 281.18,44.32
             283.50,15.23 270.10,1.85 256.05,2.84 Z
           M 195.03,308.96
           C 195.03,308.96 195.03,321.76 195.03,321.76
             195.03,321.76 197.85,321.76 197.85,321.76
             201.95,321.76 204.76,319.32 204.76,315.36
             204.76,311.26 201.95,308.96 197.85,308.96
             197.85,308.96 195.03,308.96 195.03,308.96 Z
           M 187.74,302.44
           C 187.74,302.44 197.47,302.44 197.47,302.44
             206.43,302.44 211.55,307.68 211.55,315.23
             211.55,322.65 206.43,328.15 197.47,328.15
             197.47,328.15 187.74,328.15 187.74,328.15
             187.74,328.15 187.74,302.44 187.74,302.44 Z
           M 166.87,308.83
           C 166.87,308.83 159.45,308.83 159.45,308.83
             159.45,308.83 159.45,302.44 159.45,302.44
             159.45,302.44 181.34,302.44 181.34,302.44
             181.34,302.44 181.34,308.83 181.34,308.83
             181.34,308.83 173.78,308.83 173.78,308.83
             173.78,308.83 173.78,328.02 173.78,328.02
             173.78,328.02 167.00,328.02 167.00,328.02
             167.00,328.02 166.87,308.83 166.87,308.83 Z
           M 132.56,324.31
           C 132.56,324.31 136.40,319.58 136.40,319.58
             138.69,321.53 141.59,322.62 144.60,322.65
             146.52,322.65 147.54,322.01 147.54,320.99
             147.54,320.99 147.54,320.86 147.54,320.86
             147.54,319.71 146.64,319.20 143.19,318.30
             137.94,317.02 133.84,315.61 133.84,310.37
             133.84,305.51 137.55,302.05 143.57,302.05
             147.80,302.05 151.12,303.33 153.81,305.51
             153.81,305.51 150.36,310.50 150.36,310.50
             148.34,308.92 145.87,308.03 143.32,307.94
             141.65,307.94 140.76,308.71 140.76,309.60
             140.76,310.88 141.65,311.39 145.24,312.16
             151.00,313.44 154.45,315.36 154.45,320.09
             154.45,320.09 154.45,320.22 154.45,320.22
             154.45,325.47 150.48,328.54 144.34,328.54
             139.99,328.54 135.76,327.26 132.56,324.31
             132.56,324.31 132.56,324.31 132.56,324.31 Z
           M 106.96,302.56
           C 106.96,302.56 127.31,302.56 127.31,302.56
             127.31,302.56 127.31,308.58 127.31,308.58
             127.31,308.58 113.87,308.58 113.87,308.58
             113.87,308.58 113.87,312.42 113.87,312.42
             113.87,312.42 125.91,312.42 125.91,312.42
             125.91,312.42 125.91,318.04 125.91,318.04
             125.91,318.04 113.87,318.04 113.87,318.04
             113.87,318.04 113.87,322.14 113.87,322.14
             113.87,322.14 127.31,322.14 127.31,322.14
             127.31,322.14 127.31,328.15 127.31,328.15
             127.31,328.15 106.96,328.15 106.96,328.15
             106.96,328.15 106.96,302.56 106.96,302.56
             106.96,302.56 106.96,302.56 106.96,302.56 Z
           M 383.09,323.67
           C 383.09,323.67 393.33,315.61 393.33,315.61
             395.76,313.69 396.79,312.29 396.79,310.75
             396.79,308.96 395.51,307.81 393.72,307.81
             391.92,307.81 390.39,308.96 388.34,311.39
             388.34,311.39 383.22,307.17 383.22,307.17
             386.16,303.33 388.98,301.16 394.23,301.16
             400.25,301.16 404.34,304.87 404.34,310.11
             404.34,314.59 402.04,316.89 397.94,319.84
             397.94,319.84 393.33,323.16 393.33,323.16
             393.33,323.16 404.60,323.16 404.60,323.16
             404.60,323.16 404.60,329.43 404.60,329.43
             404.60,329.43 383.09,329.43 383.09,329.43
             383.09,329.43 383.09,323.67 383.09,323.67 Z
           M 354.54,321.76
           C 354.54,318.30 356.21,316.25 359.15,314.97
             357.10,313.82 355.31,312.03 355.31,308.96
             355.31,304.48 359.54,301.28 365.55,301.28
             371.57,301.28 375.79,304.48 375.79,308.96
             375.90,311.50 374.49,313.86 372.21,314.97
             374.90,316.25 376.82,318.17 376.82,321.63
             376.82,326.74 372.21,329.94 365.55,329.94
             359.15,329.94 354.54,326.62 354.54,321.76
             354.54,321.76 354.54,321.76 354.54,321.76 Z
           M 369.52,320.99
           C 369.52,319.07 367.98,317.92 365.68,317.92
             363.38,317.92 361.84,319.20 361.84,320.86
             361.84,320.86 361.84,320.99 361.84,320.99
             361.84,322.65 363.12,324.19 365.68,324.19
             368.24,324.19 369.52,322.65 369.52,320.99
             369.52,320.99 369.52,320.99 369.52,320.99 Z
           M 369.01,309.86
           C 369.01,308.19 367.73,306.79 365.68,306.79
             363.63,306.79 362.35,308.19 362.35,309.73
             362.35,309.73 362.35,309.86 362.35,309.86
             362.35,311.65 363.63,312.93 365.68,312.93
             367.60,312.93 369.01,311.65 369.01,309.86
             369.01,309.86 369.01,309.86 369.01,309.86 Z
           M 340.33,317.79
           C 338.80,319.29 336.72,320.12 334.57,320.09
             329.45,320.09 325.48,316.64 325.48,311.14
             325.48,305.12 330.09,301.16 336.36,301.16
             340.21,301.16 342.64,302.18 344.69,304.36
             346.61,306.27 347.89,309.47 347.89,314.59
             347.89,323.67 343.53,329.94 335.34,329.94
             331.88,330.04 328.51,328.85 325.87,326.62
             325.87,326.62 329.32,321.37 329.32,321.37
             330.96,322.78 333.05,323.56 335.21,323.55
             339.18,323.55 340.21,319.96 340.33,317.79
             340.33,317.79 340.33,317.79 340.33,317.79 Z
           M 340.46,310.88
           C 340.46,308.71 338.93,307.04 336.62,307.04
             334.32,307.04 332.78,308.71 332.78,310.88
             332.78,312.93 334.32,314.59 336.62,314.59
             338.93,314.59 340.46,312.93 340.46,310.88 Z
           M 309.74,308.58
           C 309.74,308.58 305.26,309.73 305.26,309.73
             305.26,309.73 303.85,303.72 303.85,303.72
             303.85,303.72 311.79,301.41 311.79,301.41
             311.79,301.41 317.29,301.41 317.29,301.41
             317.29,301.41 317.29,329.43 317.29,329.43
             317.29,329.43 309.87,329.43 309.87,329.43
             309.87,329.43 309.74,308.58 309.74,308.58 Z
           M 431.94,311.01
           C 415.62,329.03 447.81,328.66 445.25,343.25
             444.10,349.65 434.50,365.77 430.66,371.78
             414.53,394.61 398.43,411.21 377.29,426.30
             336.03,451.44 305.05,456.21 289.67,447.31
             278.91,441.09 274.32,419.01 273.22,395.90
             268.72,301.85 268.84,298.09 268.84,298.09
             268.84,294.38 269.15,291.52 270.42,289.40
             271.61,287.02 273.75,285.33 275.75,283.88
             275.85,283.81 275.94,283.74 276.04,283.67
             276.44,283.38 276.84,283.10 277.22,282.82
             277.22,282.82 277.16,282.82 277.16,282.82
             284.62,276.88 289.38,267.88 289.38,257.82
             289.38,239.93 274.34,225.42 255.80,225.42
             237.25,225.42 222.21,239.93 222.21,257.82
             222.21,269.67 228.81,280.02 238.64,285.67
             239.84,286.73 240.94,287.93 241.67,289.40
             242.95,291.52 243.25,294.38 243.25,298.09
             243.25,298.09 243.23,300.72 238.88,395.90
             237.83,419.01 233.19,441.09 222.43,447.31
             207.05,456.22 176.07,451.44 134.81,426.30
             113.67,411.21 97.57,394.61 81.44,371.78
             77.60,365.77 68.00,349.65 66.85,343.25
             64.29,328.66 96.48,329.03 80.16,311.01
             59.33,288.00 1.97,230.96 7.26,277.24
             7.26,277.24 7.44,279.58 7.44,279.58
             18.48,407.13 125.57,507.21 256.05,507.21
             256.05,507.21 256.05,507.21 256.05,507.21
             386.53,507.21 493.63,407.13 504.66,279.58
             504.66,279.58 504.84,277.24 504.84,277.24
             510.13,230.96 452.77,288.00 431.94,311.01 Z
           M 255.79,248.67
           C 261.03,248.67 265.28,252.77 265.28,257.82
             265.28,262.87 261.03,266.97 255.79,266.97
             250.56,266.97 246.31,262.88 246.31,257.82
             246.31,252.77 250.56,248.67 255.79,248.67 Z
           M 297.81,243.37
           C 295.26,243.55 294.82,240.79 297.44,240.49
             454.06,196.01 403.09,87.90 451.10,101.65
             507.77,128.72 445.99,249.25 297.81,243.37 Z
           M 274.21,219.54
           C 272.76,220.69 271.52,219.72 272.34,218.04
             302.19,156.34 301.37,99.16 298.88,49.13
             297.61,-5.21 353.87,6.55 350.28,52.53
             344.84,109.84 315.27,178.71 274.21,219.54 Z
           M 287.93,229.25
           C 286.36,229.67 285.64,227.47 287.23,226.73
             358.62,183.06 359.99,105.28 364.28,76.53
             372.08,20.47 413.91,43.05 413.85,87.90
             414.49,128.38 374.80,201.20 287.93,229.25 Z
           M 300.36,260.24
           C 297.99,259.47 298.72,257.13 300.91,257.45
             322.52,259.47 338.33,261.00 361.23,258.20
             380.65,256.85 404.94,249.56 416.74,242.33
             479.11,210.45 462.25,161.95 488.69,176.76
             538.47,212.77 471.90,313.48 300.36,260.24 Z" />
</svg>
