<svg y="30" height="20" viewBox="0 0 1e3 1e3">
 <g>
  <path fill="#708090" fill-opacity="0.1" stroke="#708090" stroke-width="10" d="m500.37 16.95c-35.32 0-63.95 28.63-63.95 63.95 0.2 24.56 14.45 46.85 36.67 57.32v58.47h-232.37v46.6h218.39c7.38-6.52 15.17-12.41 23.32-17.58l17.49 17.43 17.49-17.5c8.21 5.19 16.02 11.11 23.42 17.65h218.45v-46.6h-234.34v-57.35c23.64-9.84 39.14-32.84 39.37-58.44 0-35.32-28.63-63.95-63.94-63.95zm-0.27 20.79c23.98 0 43.42 19.44 43.42 43.42 0 23.97-19.44 43.41-43.42 43.41-23.97 0-43.41-19.44-43.41-43.41 0-23.98 19.44-43.42 43.41-43.42zm0.02 629.23c-17.08 17.42-37.9 31.65-61.71 41.39 3.24 20.19-11.74 206.37-243.14 52.98l19.29-16.02c-41.52-21.26-90.9-64.74-102.01-73.9-3.27 74.55 11.12 124.9 18.96 144.52l22.56-19.61c87.96 88.93 218.74 158.9 345.93 185.71 127.19-26.82 257.98-96.78 345.93-185.71l22.56 19.61c7.85-19.62 22.23-69.97 18.96-144.52-11.11 9.16-60.48 52.64-102.01 73.9l19.3 16.02c-231.29 153.31-246.06-32.59-242.82-52.95-22.89-9.4-45.55-24.85-61.79-41.41l-0.01-0.01z" />
  <path fill="#dc143c" fill-opacity="0.1" stroke="#dc143c" stroke-width="10" d="m760.58 428.03c-5.61 21.98-15.38 43.3-29.57 62.78-18.09 24.88-41.26 43.96-67.01 56.77 5.81 11.15 10.5 23.04 14 35.45 6.73 23.76 6.8 48.58 6.8 49.9 0 29.25-7.07 53.08-12.94 68.19-8.12-1.25-16.24-2.57-24.43-3.82-1.25 8.11-2.5 16.23-3.82 24.35-15.58 0.99-40.47 0.6-68.99-8.71-27.8-9.25-55.31-26.42-74.72-46.21-20.14 20.53-45.42 36.7-74.73 46.21-22.91 7.46-46.21 10.17-68.85 8.71l-3.83-24.42-24.42 3.89c-8.32-21.12-12.94-44.09-12.94-68.19 0-30.76 7.52-59.8 20.86-85.35-25.75-12.81-48.92-31.89-67.01-56.77-14.12-19.48-23.96-40.8-29.57-62.78l21.98-11.22-11.22-22.05c17.49-14.46 37.96-25.94 60.86-33.4 29.25-9.51 59.22-11.36 87.6-6.54 4.23-28.45 15.19-56.37 33.27-81.26 14.13-19.47 31.43-35.38 50.57-47.53l17.49 17.43 17.5-17.49c19.21 12.14 36.43 28.05 50.56 47.53 18.09 24.88 29.05 52.81 33.27 81.26 28.39-4.76 58.36-2.97 87.6 6.53 22.91 7.46 43.37 18.95 60.86 33.4l-11.22 22.05 22.05 11.29z" />
 </g>
</svg>
