<svg xmlns="http://www.w3.org/2000/svg" viewBox="0 0 216 40">
  <style>
  #path1 {
    fill: #000080;
  }
  #path2 {
    fill: {{ site.light.text }};
  }
  #path3 {
    fill: {{ site.light.meta }};
  }
  @media ( prefers-color-scheme: dark ) {
   #path1 {
      fill: {{ site.dark.text }};
    }
   #path2 {
      fill: {{ site.dark.text }};
    }
   #path3 {
      fill: {{ site.dark.meta }};
    }
  }
  </style>
  <path id="path3"
        d="M 200.45,33.14
           C 200.14,32.81 199.69,32.64 199.24,32.66
             198.77,32.66 198.32,32.86 198.00,33.20
             198.00,33.20 198.00,32.78 198.00,32.78
             198.00,32.78 196.93,32.78 196.93,32.78
             196.93,32.78 196.93,37.31 196.93,37.31
             196.93,37.31 198.00,37.31 198.00,37.31
             198.00,37.31 198.00,35.11 198.00,35.11
             198.00,34.55 198.06,34.13 198.20,33.90
             198.37,33.68 198.59,33.56 198.96,33.56
             199.24,33.56 199.49,33.65 199.61,33.85
             199.72,34.01 199.80,34.30 199.80,34.75
             199.80,34.75 199.80,37.28 199.80,37.28
             199.80,37.28 200.84,37.28 200.84,37.28
             200.84,37.28 200.84,34.49 200.84,34.49
             200.84,33.87 200.73,33.40 200.45,33.11
             200.45,33.11 200.45,33.14 200.45,33.14
             200.45,33.14 200.45,33.14 200.45,33.14
             200.45,33.14 200.45,33.14 200.45,33.14 Z
           M 193.19,32.66
           C 192.52,32.66 191.93,32.89 191.48,33.34
             191.01,33.78 190.76,34.39 190.77,35.03
             190.75,35.66 191.00,36.27 191.45,36.72
             191.89,37.19 192.52,37.46 193.17,37.45
             193.84,37.45 194.43,37.22 194.91,36.75
             195.37,36.31 195.62,35.69 195.61,35.06
             195.63,33.75 194.58,32.68 193.28,32.66
             193.25,32.66 193.22,32.66 193.19,32.66
             193.19,32.66 193.19,32.66 193.19,32.66
             193.19,32.66 193.19,32.66 193.19,32.66 Z
           M 194.15,36.10
           C 193.92,36.38 193.59,36.52 193.19,36.52
             192.77,36.52 192.46,36.38 192.21,36.10
             191.96,35.82 191.84,35.48 191.84,35.03
             191.84,34.61 191.96,34.27 192.21,33.99
             192.46,33.73 192.77,33.59 193.19,33.59
             193.59,33.59 193.92,33.73 194.15,33.99
             194.43,34.27 194.57,34.66 194.54,35.06
             194.56,35.44 194.42,35.82 194.15,36.10 Z
           M 188.38,32.78
           C 188.38,32.78 189.42,32.78 189.42,32.78
             189.42,32.78 189.42,37.31 189.42,37.31
             189.42,37.31 188.38,37.31 188.38,37.31
             188.38,37.31 188.38,32.78 188.38,32.78 Z
           M 188.89,30.24
           C 188.72,30.24 188.55,30.30 188.41,30.41
             188.27,30.55 188.21,30.69 188.21,30.89
             188.21,31.09 188.27,31.26 188.41,31.40
             188.55,31.51 188.69,31.59 188.89,31.59
             189.09,31.59 189.26,31.51 189.37,31.40
             189.51,31.26 189.59,31.11 189.59,30.89
             189.59,30.72 189.51,30.55 189.37,30.41
             189.26,30.30 189.09,30.21 188.89,30.21
             188.89,30.21 188.89,30.24 188.89,30.24
             188.89,30.24 188.89,30.24 188.89,30.24 Z
           M 185.57,32.78
           C 185.57,32.78 185.12,32.78 185.12,32.78
             185.12,32.78 185.12,33.76 185.12,33.76
             185.12,33.76 185.57,33.76 185.57,33.76
             185.57,33.76 185.57,37.31 185.57,37.31
             185.57,37.31 186.61,37.31 186.61,37.31
             186.61,37.31 186.61,33.76 186.61,33.76
             186.61,33.76 187.43,33.76 187.43,33.76
             187.43,33.76 187.43,32.78 187.43,32.78
             187.43,32.78 186.61,32.78 186.61,32.78
             186.61,32.78 186.61,31.11 186.61,31.11
             186.61,31.11 185.57,31.11 185.57,31.11
             185.57,31.11 185.57,32.78 185.57,32.78 Z
           M 182.93,33.31
           C 182.20,32.50 180.95,32.43 180.15,33.16
             180.08,33.22 180.03,33.28 179.97,33.34
             179.57,33.81 179.36,34.41 179.38,35.03
             179.35,35.66 179.56,36.29 179.97,36.77
             180.70,37.60 181.96,37.69 182.79,36.96
             182.84,36.92 182.88,36.88 182.93,36.83
             182.93,36.83 182.93,37.31 182.93,37.31
             182.93,37.31 183.97,37.31 183.97,37.31
             183.97,37.31 183.97,32.80 183.97,32.80
             183.97,32.80 182.93,32.80 182.93,32.80
             182.93,32.80 182.93,33.31 182.93,33.31
             182.93,33.31 182.93,33.31 182.93,33.31 Z
           M 182.64,36.13
           C 182.39,36.38 182.08,36.52 181.69,36.52
             181.34,36.53 181.01,36.37 180.79,36.10
             180.56,35.82 180.45,35.48 180.45,35.03
             180.45,34.63 180.56,34.30 180.79,34.01
             181.04,33.73 181.35,33.59 181.69,33.59
             182.08,33.59 182.39,33.73 182.64,34.01
             182.87,34.30 182.98,34.63 182.98,35.06
             182.98,35.48 182.87,35.82 182.64,36.10
             182.64,36.10 182.64,36.13 182.64,36.13
             182.64,36.13 182.64,36.13 182.64,36.13 Z
           M 176.99,32.78
           C 176.99,32.78 178.03,32.78 178.03,32.78
             178.03,32.78 178.03,37.31 178.03,37.31
             178.03,37.31 176.99,37.31 176.99,37.31
             176.99,37.31 176.99,32.78 176.99,32.78 Z
           M 177.50,30.24
           C 177.30,30.24 177.16,30.30 177.02,30.41
             176.88,30.55 176.82,30.69 176.82,30.89
             176.82,31.09 176.88,31.26 177.02,31.40
             177.16,31.51 177.30,31.59 177.50,31.59
             177.87,31.59 178.17,31.29 178.17,30.92
             178.17,30.91 178.17,30.90 178.17,30.89
             178.17,30.72 178.12,30.55 177.98,30.41
             177.84,30.30 177.69,30.21 177.50,30.21
             177.50,30.21 177.50,30.24 177.50,30.24
             177.50,30.24 177.50,30.24 177.50,30.24
             177.50,30.24 177.50,30.24 177.50,30.24 Z
           M 172.72,33.34
           C 172.24,33.78 171.98,34.41 171.98,35.06
             171.97,35.69 172.22,36.31 172.69,36.75
             173.16,37.21 173.80,37.46 174.46,37.45
             174.88,37.45 175.30,37.34 175.73,37.11
             175.73,37.11 175.73,35.70 175.73,35.70
             175.55,35.95 175.33,36.17 175.08,36.35
             174.88,36.46 174.66,36.52 174.40,36.52
             174.01,36.52 173.70,36.38 173.45,36.10
             173.17,35.82 173.05,35.48 173.05,35.06
             173.05,34.63 173.19,34.30 173.45,34.01
             173.73,33.73 174.04,33.59 174.43,33.59
             174.68,33.59 174.91,33.65 175.08,33.76
             175.33,33.92 175.55,34.12 175.73,34.35
             175.73,34.35 175.73,32.97 175.73,32.97
             174.75,32.44 173.54,32.59 172.72,33.34
             172.72,33.34 172.72,33.34 172.72,33.34
             172.72,33.34 172.72,33.34 172.72,33.34 Z
           M 168.44,32.66
           C 167.76,32.66 167.20,32.89 166.75,33.34
             166.28,33.77 166.01,34.39 166.02,35.03
             166.02,35.70 166.25,36.30 166.72,36.72
             167.16,37.19 167.77,37.45 168.41,37.45
             169.11,37.45 169.68,37.22 170.16,36.75
             170.61,36.30 170.87,35.69 170.86,35.06
             170.86,34.38 170.63,33.82 170.16,33.37
             169.70,32.91 169.08,32.65 168.44,32.66
             168.44,32.66 168.44,32.66 168.44,32.66
             168.44,32.66 168.44,32.66 168.44,32.66 Z
           M 169.42,36.10
           C 169.17,36.38 168.86,36.52 168.44,36.52
             168.05,36.52 167.71,36.38 167.46,36.10
             167.23,35.82 167.09,35.48 167.09,35.03
             167.09,34.61 167.23,34.27 167.46,33.99
             167.74,33.73 168.02,33.59 168.44,33.59
             168.83,33.59 169.17,33.73 169.42,33.99
             169.68,34.27 169.79,34.61 169.79,35.06
             169.79,35.51 169.68,35.84 169.42,36.10 Z
           M 163.66,34.47
           C 163.26,34.30 163.04,34.10 163.04,33.93
             163.04,33.85 163.10,33.76 163.15,33.70
             163.21,33.62 163.29,33.59 163.40,33.59
             163.60,33.59 163.77,33.73 163.91,34.01
             163.91,34.01 164.76,33.56 164.76,33.56
             164.47,32.94 164.05,32.66 163.49,32.66
             163.12,32.65 162.75,32.78 162.48,33.03
             162.20,33.31 162.08,33.62 162.08,34.01
             162.08,34.30 162.14,34.58 162.31,34.75
             162.49,34.94 162.71,35.09 162.95,35.20
             162.95,35.20 163.26,35.34 163.26,35.34
             163.26,35.34 163.57,35.51 163.57,35.51
             163.85,35.68 164.00,35.84 164.00,36.01
             164.00,36.35 163.83,36.52 163.46,36.52
             163.29,36.52 163.12,36.44 163.01,36.32
             163.01,36.32 162.73,35.93 162.73,35.93
             162.73,35.93 161.83,36.32 161.83,36.32
             162.14,37.08 162.67,37.45 163.43,37.45
             163.88,37.45 164.28,37.31 164.56,37.03
             164.89,36.75 165.08,36.33 165.06,35.90
             165.08,35.61 164.97,35.33 164.78,35.11
             164.59,34.92 164.22,34.69 163.66,34.47
             163.66,34.47 163.66,34.47 163.66,34.47
             163.66,34.47 163.66,34.47 163.66,34.47 Z
           M 159.55,34.47
           C 159.16,34.30 158.96,34.10 158.96,33.93
             158.96,33.85 158.96,33.76 159.05,33.70
             159.13,33.62 159.21,33.59 159.30,33.59
             159.50,33.59 159.66,33.73 159.80,34.01
             159.80,34.01 160.65,33.56 160.65,33.56
             160.37,32.94 159.95,32.66 159.38,32.66
             159.01,32.65 158.65,32.78 158.37,33.03
             158.09,33.31 157.98,33.62 157.98,34.01
             157.98,34.30 158.06,34.58 158.20,34.75
             158.38,34.94 158.60,35.09 158.85,35.20
             159.06,35.29 159.28,35.39 159.50,35.48
             159.78,35.68 159.89,35.84 159.89,36.04
             159.89,36.32 159.72,36.52 159.35,36.52
             159.19,36.52 159.05,36.44 158.90,36.32
             158.90,36.32 158.62,35.93 158.62,35.93
             158.62,35.93 157.72,36.32 157.72,36.32
             158.06,37.08 158.57,37.45 159.35,37.45
             159.78,37.45 160.17,37.31 160.48,37.03
             160.80,36.74 160.98,36.33 160.96,35.90
             160.97,35.61 160.87,35.33 160.68,35.11
             160.48,34.92 160.11,34.69 159.55,34.47 Z
           M 150.13,37.31
           C 150.13,37.31 151.28,37.31 151.28,37.31
             151.28,37.31 152.10,35.56 152.10,35.56
             152.10,35.56 155.19,35.56 155.19,35.56
             155.19,35.56 155.92,37.31 155.92,37.31
             155.92,37.31 157.10,37.31 157.10,37.31
             157.10,37.31 153.67,29.68 153.67,29.68
             153.67,29.68 150.13,37.31 150.13,37.31 Z
           M 152.55,34.55
           C 152.55,34.55 153.67,32.10 153.67,32.10
             153.67,32.10 154.71,34.55 154.71,34.55
             154.71,34.55 152.55,34.55 152.55,34.55 Z
           M 145.49,30.21
           C 145.29,30.21 145.15,30.30 145.01,30.41
             144.87,30.55 144.81,30.69 144.81,30.89
             144.81,31.09 144.87,31.26 145.01,31.40
             145.15,31.51 145.29,31.59 145.49,31.59
             145.68,31.59 145.82,31.51 145.97,31.40
             146.11,31.26 146.16,31.11 146.16,30.89
             146.16,30.72 146.11,30.55 145.97,30.41
             145.82,30.30 145.68,30.21 145.49,30.21 Z
           M 144.95,32.78
           C 144.95,32.78 146.02,32.78 146.02,32.78
             146.02,32.78 146.02,37.31 146.02,37.31
             146.02,37.31 144.95,37.31 144.95,37.31
             144.95,37.31 144.95,32.78 144.95,32.78 Z
           M 141.01,34.24
           C 141.01,34.24 141.01,29.45 141.01,29.45
             141.01,29.45 139.97,29.45 139.97,29.45
             139.97,29.45 139.97,37.34 139.97,37.34
             139.97,37.34 141.04,37.34 141.04,37.34
             141.04,37.34 141.04,35.56 141.04,35.56
             141.04,35.56 141.18,35.39 141.18,35.39
             141.18,35.39 142.70,37.31 142.70,37.31
             142.70,37.31 144.05,37.31 144.05,37.31
             144.05,37.31 141.94,34.69 141.94,34.69
             141.94,34.69 143.91,32.78 143.91,32.78
             143.91,32.78 142.51,32.78 142.51,32.78
             142.51,32.78 141.01,34.24 141.01,34.24
             141.01,34.24 141.01,34.24 141.01,34.24 Z
           M 137.36,35.37
           C 137.36,36.13 137.08,36.49 136.51,36.49
             135.90,36.49 135.61,36.13 135.61,35.37
             135.61,35.37 135.61,32.78 135.61,32.78
             135.61,32.78 134.54,32.78 134.54,32.78
             134.54,32.78 134.54,35.39 134.54,35.39
             134.54,35.82 134.60,36.13 134.69,36.35
             134.77,36.58 134.94,36.80 135.14,36.97
             135.51,37.29 135.99,37.47 136.49,37.45
             136.98,37.47 137.46,37.29 137.84,36.97
             138.06,36.80 138.20,36.58 138.29,36.35
             138.37,36.07 138.43,35.79 138.43,35.39
             138.43,35.39 138.43,32.78 138.43,32.78
             138.43,32.78 137.39,32.78 137.39,32.78
             137.39,32.78 137.39,35.39 137.39,35.39
             137.39,35.39 137.36,35.37 137.36,35.37
             137.36,35.37 137.36,35.37 137.36,35.37 Z
           M 130.63,36.32
           C 130.63,36.32 133.59,32.78 133.59,32.78
             133.59,32.78 129.20,32.78 129.20,32.78
             129.20,32.78 129.20,33.76 129.20,33.76
             129.20,33.76 131.51,33.76 131.51,33.76
             131.51,33.76 128.58,37.31 128.58,37.31
             128.58,37.31 133.36,37.31 133.36,37.31
             133.36,37.31 133.36,36.32 133.36,36.32
             133.36,36.32 130.63,36.32 130.63,36.32
             130.63,36.32 130.63,36.32 130.63,36.32 Z
           M 126.58,35.39
           C 126.58,36.13 126.30,36.52 125.71,36.52
             125.12,36.52 124.81,36.13 124.81,35.39
             124.81,35.39 124.81,32.78 124.81,32.78
             124.81,32.78 123.77,32.78 123.77,32.78
             123.77,32.78 123.77,35.39 123.77,35.39
             123.77,35.82 123.83,36.13 123.91,36.35
             124.00,36.58 124.14,36.80 124.36,36.97
             124.74,37.29 125.22,37.47 125.71,37.45
             126.21,37.47 126.69,37.29 127.06,36.97
             127.26,36.80 127.43,36.58 127.51,36.35
             127.60,36.07 127.65,35.79 127.65,35.39
             127.65,35.39 127.65,32.78 127.65,32.78
             127.65,32.78 126.58,32.78 126.58,32.78
             126.58,32.78 126.58,35.39 126.58,35.39
             126.58,35.39 126.58,35.39 126.58,35.39
             126.58,35.39 126.58,35.39 126.58,35.39 Z
           M 119.83,34.27
           C 119.83,34.27 119.83,29.40 119.83,29.40
             119.83,29.40 118.71,29.40 118.71,29.40
             118.71,29.40 118.71,37.28 118.71,37.28
             118.71,37.28 119.75,37.28 119.75,37.28
             119.75,37.28 119.75,35.51 119.75,35.51
             119.75,35.51 119.92,35.34 119.92,35.34
             119.92,35.34 121.41,37.25 121.41,37.25
             121.41,37.25 122.79,37.25 122.79,37.25
             122.79,37.25 120.68,34.63 120.68,34.63
             120.68,34.63 122.65,32.72 122.65,32.72
             122.65,32.72 121.24,32.72 121.24,32.72
             121.24,32.72 119.83,34.27 119.83,34.27
             119.83,34.27 119.83,34.27 119.83,34.27 Z
           M 116.18,32.78
           C 116.18,32.78 117.22,32.78 117.22,32.78
             117.22,32.78 117.22,37.31 117.22,37.31
             117.22,37.31 116.15,37.31 116.15,37.31
             116.15,37.31 116.18,32.78 116.18,32.78
             116.18,32.78 116.18,32.78 116.18,32.78 Z
           M 116.68,30.24
           C 116.49,30.24 116.35,30.30 116.20,30.41
             116.06,30.55 116.01,30.69 116.01,30.89
             116.01,31.09 116.06,31.26 116.20,31.40
             116.35,31.51 116.49,31.59 116.68,31.59
             116.88,31.59 117.02,31.51 117.16,31.40
             117.30,31.26 117.36,31.11 117.36,30.89
             117.36,30.72 117.30,30.55 117.16,30.41
             117.02,30.30 116.88,30.21 116.68,30.21
             116.68,30.21 116.68,30.24 116.68,30.24
             116.68,30.24 116.68,30.24 116.68,30.24 Z
           M 110.89,33.00
           C 110.89,33.00 110.89,30.10 110.89,30.10
             110.89,30.10 109.82,30.10 109.82,30.10
             109.82,30.10 109.82,37.28 109.82,37.28
             109.82,37.28 110.89,37.28 110.89,37.28
             110.89,37.28 110.89,34.32 110.89,34.32
             110.89,34.32 111.11,34.10 111.11,34.10
             111.11,34.10 113.70,37.28 113.70,37.28
             113.70,37.28 115.16,37.28 115.16,37.28
             115.16,37.28 111.90,33.34 111.90,33.34
             111.90,33.34 115.14,30.10 115.14,30.10
             115.14,30.10 113.70,30.10 113.70,30.10
             113.70,30.10 110.89,33.00 110.89,33.00
             110.89,33.00 110.89,33.00 110.89,33.00 Z
           M 104.19,32.78
           C 104.00,32.89 103.83,33.03 103.69,33.20
             103.69,33.20 103.69,32.78 103.69,32.78
             103.69,32.78 102.65,32.78 102.65,32.78
             102.65,32.78 102.65,37.31 102.65,37.31
             102.65,37.31 103.69,37.31 103.69,37.31
             103.69,37.31 103.69,34.97 103.69,34.97
             103.69,34.10 103.97,33.68 104.53,33.68
             104.74,33.67 104.94,33.74 105.09,33.87
             105.09,33.87 105.60,32.92 105.60,32.92
             105.32,32.75 105.01,32.63 104.76,32.63
             104.56,32.63 104.37,32.68 104.19,32.78
             104.19,32.78 104.19,32.78 104.19,32.78 Z
           M 99.83,36.32
           C 99.64,36.45 99.42,36.52 99.19,36.52
             98.88,36.52 98.59,36.40 98.37,36.18
             98.14,35.94 98.01,35.62 98.01,35.28
             98.01,35.28 101.27,35.28 101.27,35.28
             101.27,35.28 101.27,35.06 101.27,35.06
             101.27,34.30 101.07,33.70 100.71,33.28
             100.29,32.85 99.70,32.62 99.10,32.66
             98.51,32.63 97.93,32.87 97.53,33.31
             97.11,33.79 96.89,34.42 96.91,35.06
             96.91,35.76 97.13,36.35 97.53,36.80
             97.95,37.24 98.55,37.48 99.16,37.45
             99.38,37.45 99.61,37.42 99.81,37.37
             100.00,37.32 100.19,37.24 100.37,37.14
             100.56,37.02 100.73,36.88 100.87,36.72
             100.87,36.72 101.30,36.13 101.30,36.13
             101.30,36.13 100.42,35.62 100.42,35.62
             100.20,35.96 100.00,36.18 99.86,36.32
             99.86,36.32 99.83,36.32 99.83,36.32
             99.83,36.32 99.83,36.32 99.83,36.32
             99.83,36.32 99.83,36.32 99.83,36.32 Z
           M 98.23,34.07
           C 98.37,33.87 98.56,33.72 98.79,33.65
             98.79,33.65 99.13,33.59 99.13,33.59
             99.69,33.59 100.03,33.87 100.17,34.44
             100.17,34.44 98.09,34.44 98.09,34.44
             98.09,34.30 98.17,34.18 98.23,34.10
             98.23,34.10 98.23,34.07 98.23,34.07
             98.23,34.07 98.23,34.07 98.23,34.07 Z
           M 96.35,32.78
           C 96.35,32.78 95.16,32.78 95.16,32.78
             95.16,32.78 93.87,35.39 93.87,35.39
             93.87,35.39 92.46,32.78 92.46,32.78
             92.46,32.78 91.26,32.78 91.26,32.78
             91.26,32.78 93.31,36.46 93.31,36.46
             93.31,36.46 91.54,39.79 91.54,39.79
             91.54,39.79 92.72,39.79 92.72,39.79
             92.72,39.79 96.35,32.78 96.35,32.78 Z
           M 88.33,32.66
           C 87.65,32.66 87.09,32.89 86.64,33.34
             86.17,33.77 85.90,34.39 85.91,35.03
             85.91,35.70 86.14,36.30 86.61,36.72
             87.05,37.19 87.66,37.45 88.30,37.45
             89.00,37.45 89.57,37.22 90.05,36.75
             90.50,36.30 90.76,35.69 90.75,35.06
             90.75,34.38 90.52,33.82 90.05,33.37
             89.59,32.91 88.97,32.65 88.33,32.66
             88.33,32.66 88.33,32.66 88.33,32.66 Z
           M 89.31,36.10
           C 89.06,36.38 88.75,36.52 88.33,36.52
             87.94,36.52 87.60,36.38 87.35,36.10
             87.12,35.82 86.98,35.48 86.98,35.03
             86.98,34.61 87.12,34.27 87.35,33.99
             87.63,33.73 87.91,33.59 88.33,33.59
             88.72,33.59 89.06,33.73 89.31,33.99
             89.57,34.27 89.68,34.61 89.68,35.06
             89.68,35.51 89.57,35.84 89.31,36.10 Z
           M 83.97,32.78
           C 83.78,32.89 83.61,33.03 83.46,33.20
             83.46,33.20 83.46,32.78 83.46,32.78
             83.46,32.78 82.42,32.78 82.42,32.78
             82.42,32.78 82.42,37.31 82.42,37.31
             82.42,37.31 83.46,37.31 83.46,37.31
             83.46,37.31 83.46,34.97 83.46,34.97
             83.46,34.10 83.74,33.68 84.31,33.68
             84.50,33.68 84.70,33.73 84.90,33.87
             84.90,33.87 85.38,32.92 85.38,32.92
             85.09,32.75 84.81,32.63 84.53,32.63
             84.34,32.63 84.14,32.68 83.97,32.78
             83.97,32.78 83.97,32.78 83.97,32.78
             83.97,32.78 83.97,32.78 83.97,32.78 Z
           M 79.61,32.78
           C 79.61,32.78 79.16,32.78 79.16,32.78
             79.16,32.78 79.16,33.76 79.16,33.76
             79.16,33.76 79.61,33.76 79.61,33.76
             79.61,33.76 79.61,37.31 79.61,37.31
             79.61,37.31 80.65,37.31 80.65,37.31
             80.65,37.31 80.65,33.76 80.65,33.76
             80.65,33.76 81.47,33.76 81.47,33.76
             81.47,33.76 81.47,32.78 81.47,32.78
             81.47,32.78 80.65,32.78 80.65,32.78
             80.65,32.78 80.65,31.11 80.65,31.11
             80.65,31.11 79.61,31.11 79.61,31.11
             79.61,31.11 79.61,32.78 79.61,32.78 Z
           M 76.99,34.47
           C 76.57,34.30 76.38,34.10 76.38,33.93
             76.38,33.85 76.43,33.76 76.49,33.70
             76.54,33.62 76.63,33.59 76.74,33.59
             76.94,33.59 77.11,33.73 77.25,34.01
             77.25,34.01 78.09,33.56 78.09,33.56
             77.81,32.94 77.39,32.66 76.83,32.66
             76.45,32.65 76.09,32.78 75.81,33.03
             75.53,33.31 75.39,33.62 75.39,34.01
             75.39,34.30 75.47,34.58 75.64,34.75
             75.83,34.94 76.05,35.09 76.29,35.20
             76.50,35.29 76.70,35.39 76.91,35.48
             77.19,35.68 77.33,35.84 77.33,36.04
             77.33,36.32 77.16,36.52 76.80,36.52
             76.63,36.52 76.46,36.44 76.35,36.32
             76.35,36.32 76.07,35.93 76.07,35.93
             76.07,35.93 75.17,36.32 75.17,36.32
             75.47,37.08 76.01,37.45 76.77,37.45
             77.22,37.45 77.61,37.31 77.89,37.03
             78.23,36.75 78.41,36.33 78.40,35.90
             78.41,35.61 78.31,35.33 78.12,35.11
             77.92,34.92 77.56,34.69 76.99,34.47
             76.99,34.47 76.99,34.47 76.99,34.47
             76.99,34.47 76.99,34.47 76.99,34.47 Z
           M 72.69,36.32
           C 72.52,36.44 72.30,36.52 72.04,36.52
             71.73,36.53 71.42,36.41 71.20,36.18
             70.97,35.94 70.84,35.62 70.83,35.28
             70.83,35.28 74.10,35.28 74.10,35.28
             74.10,35.28 74.10,35.06 74.10,35.06
             74.10,34.30 73.90,33.70 73.53,33.28
             73.12,32.85 72.53,32.62 71.93,32.66
             71.33,32.63 70.75,32.87 70.36,33.31
             69.95,33.80 69.74,34.42 69.76,35.06
             69.76,35.76 69.96,36.35 70.36,36.80
             70.78,37.24 71.38,37.48 71.99,37.45
             72.24,37.45 72.44,37.42 72.66,37.37
             72.86,37.32 73.05,37.24 73.22,37.14
             73.40,37.02 73.56,36.88 73.70,36.72
             73.70,36.72 74.12,36.13 74.12,36.13
             74.12,36.13 73.25,35.62 73.25,35.62
             73.10,35.88 72.91,36.12 72.69,36.32
             72.69,36.32 72.69,36.32 72.69,36.32
             72.69,36.32 72.69,36.32 72.69,36.32 Z
           M 71.06,34.07
           C 71.25,33.77 71.60,33.58 71.96,33.59
             72.52,33.59 72.86,33.87 73.03,34.44
             73.03,34.44 70.89,34.44 70.89,34.44
             70.89,34.44 71.03,34.10 71.03,34.10
             71.03,34.10 71.06,34.07 71.06,34.07 Z
           M 66.19,30.33
           C 65.80,30.16 65.21,30.10 64.50,30.10
             64.50,30.10 62.99,30.10 62.99,30.10
             62.99,30.10 62.99,37.28 62.99,37.28
             62.99,37.28 64.48,37.28 64.48,37.28
             65.21,37.28 65.77,37.22 66.16,37.08
             66.61,36.94 67.02,36.70 67.37,36.38
             68.16,35.70 68.53,34.80 68.53,33.70
             68.58,32.19 67.63,30.81 66.19,30.33
             66.19,30.33 66.19,30.33 66.19,30.33
             66.19,30.33 66.19,30.33 66.19,30.33 Z
           M 66.64,35.59
           C 66.36,35.82 66.08,36.01 65.80,36.10
             65.46,36.21 65.04,36.27 64.56,36.27
             64.56,36.27 64.08,36.27 64.08,36.27
             64.08,36.27 64.08,31.11 64.08,31.11
             64.08,31.11 64.56,31.11 64.56,31.11
             65.49,31.11 66.19,31.34 66.67,31.76
             67.18,32.27 67.46,32.89 67.46,33.70
             67.46,34.47 67.18,35.11 66.64,35.59
             66.64,35.59 66.64,35.59 66.64,35.59
             66.64,35.59 66.64,35.59 66.64,35.59 Z" />
  <path id="path2"
        d="M 52.69,17.97
           C 52.69,17.97 53.79,17.97 53.79,17.97
             53.79,17.97 53.79,21.23 53.79,21.23
             53.79,21.23 52.69,21.23 52.69,21.23
             52.69,21.23 52.69,17.97 52.69,17.97 Z
           M 50.86,21.85
           C 50.86,21.85 52.10,21.85 52.10,21.85
             52.10,21.85 52.04,17.97 52.04,17.97
             52.04,17.97 50.86,17.97 50.86,17.97
             50.86,17.97 50.86,21.85 50.86,21.85
             50.86,21.85 50.86,21.85 50.86,21.85 Z
           M 50.13,17.97
           C 50.13,17.97 48.89,17.97 48.89,17.97
             48.89,17.97 48.84,22.95 48.84,22.95
             48.84,22.95 50.13,22.95 50.13,22.95
             50.13,22.95 50.13,17.97 50.13,17.97 Z
           M 46.42,23.68
           C 46.42,23.68 47.82,23.68 47.82,23.68
             47.82,23.68 48.11,20.53 48.22,17.99
             48.22,17.99 47.09,17.99 47.09,17.99
             47.09,17.99 46.90,21.20 46.42,23.68
             46.42,23.68 46.42,23.68 46.42,23.68 Z
           M 54.01,3.69
           C 54.01,3.69 47.37,3.69 47.37,3.69
             47.37,3.69 47.37,16.73 47.37,16.73
             47.37,16.73 54.58,16.73 54.58,16.73
             54.52,18.13 54.38,21.15 54.15,23.15
             54.04,24.16 52.10,23.99 52.07,23.99
             52.07,23.99 50.95,23.99 50.95,23.99
             50.95,23.99 51.00,25.79 51.00,25.79
             51.00,25.79 51.99,25.79 51.99,25.79
             51.99,25.79 52.47,25.82 52.47,25.82
             54.01,25.82 56.26,25.26 56.54,22.92
             56.85,20.11 56.91,16.14 56.94,15.97
             56.94,15.97 56.94,15.15 56.94,15.15
             56.94,15.15 54.04,15.15 54.04,15.15
             54.04,15.15 54.04,12.95 54.04,12.95
             54.04,12.95 56.63,12.95 56.63,12.95
             56.63,12.95 56.63,11.38 56.63,11.38
             56.63,11.38 54.04,11.38 54.04,11.38
             54.04,11.38 54.04,9.21 54.04,9.21
             54.04,9.21 56.66,9.21 56.66,9.21
             56.66,9.21 56.66,7.66 56.66,7.66
             56.66,7.66 54.04,7.66 54.04,7.66
             54.04,7.66 54.04,5.46 54.04,5.46
             54.04,5.46 56.94,5.46 56.94,5.46
             56.94,5.46 56.94,3.72 56.94,3.72
             56.94,3.72 54.04,3.72 54.04,3.72
             54.04,3.72 54.01,3.69 54.01,3.69
             54.01,3.69 54.01,3.69 54.01,3.69 Z
           M 52.04,15.15
           C 52.04,15.15 49.77,15.15 49.77,15.15
             49.77,15.15 49.77,12.95 49.77,12.95
             49.77,12.95 52.02,12.95 52.02,12.95
             52.02,12.95 52.04,15.15 52.04,15.15
             52.04,15.15 52.04,15.15 52.04,15.15 Z
           M 52.04,11.38
           C 52.04,11.38 49.77,11.38 49.77,11.38
             49.77,11.38 49.77,9.21 49.77,9.21
             49.77,9.21 52.02,9.21 52.02,9.21
             52.02,9.21 52.04,11.38 52.04,11.38 Z
           M 52.04,7.66
           C 52.04,7.66 49.77,7.66 49.77,7.66
             49.77,7.66 49.77,5.46 49.77,5.46
             49.77,5.46 52.02,5.46 52.02,5.46
             52.02,5.46 52.04,7.66 52.04,7.66 Z
           M 63.30,21.32
           C 63.30,21.32 65.26,16.95 65.26,16.95
             66.28,18.98 66.90,20.61 66.90,20.61
             66.90,20.61 69.65,20.61 69.65,20.61
             68.65,18.46 67.62,16.32 66.56,14.19
             67.43,12.05 68.33,9.60 69.03,7.18
             69.03,7.18 66.70,7.18 66.70,7.18
             66.70,7.18 66.14,9.15 65.12,11.72
             64.70,10.93 64.20,9.72 63.55,8.51
             63.55,8.51 60.82,8.62 60.82,8.62
             61.92,10.59 62.96,12.64 63.91,14.47
             62.93,16.73 61.86,18.95 60.71,21.12
             60.71,21.12 60.71,5.46 60.71,5.46
             60.71,5.46 69.60,5.46 69.60,5.46
             69.60,5.46 69.60,3.72 69.60,3.72
             69.60,3.72 57.98,3.72 57.98,3.72
             57.98,3.72 57.98,25.26 57.98,25.26
             57.98,25.26 69.60,25.26 69.60,25.26
             69.60,25.26 69.60,23.51 69.60,23.51
             69.60,23.51 60.71,23.51 60.71,23.51
             60.71,23.51 60.71,21.40 60.71,21.40
             60.71,21.40 63.30,21.32 63.30,21.32 Z
           M 127.43,16.78
           C 127.43,16.78 114.63,16.78 114.63,16.78
             114.63,16.78 114.63,23.96 114.63,23.96
             114.63,23.96 113.67,23.96 113.67,23.96
             113.67,23.96 113.67,25.23 113.67,25.23
             113.67,25.23 128.22,25.23 128.22,25.23
             128.22,25.23 128.22,23.96 128.22,23.96
             128.22,23.96 127.43,23.96 127.43,23.96
             127.43,23.96 127.43,16.78 127.43,16.78 Z
           M 118.23,23.96
           C 118.23,23.96 116.80,23.96 116.80,23.96
             116.80,23.96 116.80,18.05 116.80,18.05
             116.80,18.05 118.20,18.05 118.20,18.05
             118.20,18.05 118.23,23.96 118.23,23.96 Z
           M 121.75,23.96
           C 121.75,23.96 120.28,23.96 120.28,23.96
             120.28,23.96 120.28,18.05 120.28,18.05
             120.28,18.05 121.75,18.05 121.75,18.05
             121.75,18.05 121.75,23.96 121.75,23.96 Z
           M 125.26,23.96
           C 125.26,23.96 123.80,23.96 123.80,23.96
             123.80,23.96 123.80,18.05 123.80,18.05
             123.80,18.05 125.26,18.05 125.26,18.05
             125.26,18.05 125.26,23.96 125.26,23.96 Z
           M 122.22,13.07
           C 122.22,13.07 127.71,13.07 127.71,13.07
             127.71,13.07 127.71,14.50 127.71,14.50
             127.71,14.50 122.22,14.50 122.22,14.50
             122.22,14.50 122.22,13.07 122.22,13.07 Z
           M 116.32,15.57
           C 116.32,15.57 121.69,15.57 121.69,15.57
             121.69,15.57 121.69,14.31 121.69,14.31
             121.69,14.31 119.72,14.31 119.72,14.31
             119.72,14.31 119.72,12.05 119.72,12.05
             119.72,12.05 121.32,12.05 121.32,12.05
             121.32,12.05 121.32,9.97 121.32,9.97
             121.32,9.97 123.41,9.97 123.41,9.97
             123.41,9.97 123.88,8.93 124.39,7.35
             124.39,7.35 127.71,7.35 127.71,7.35
             127.71,7.35 127.71,5.89 127.71,5.89
             127.71,5.89 124.81,5.89 124.81,5.89
             125.05,5.00 125.24,4.09 125.38,3.18
             125.38,3.18 123.21,3.18 123.21,3.18
             123.21,3.18 122.79,6.17 121.30,9.58
             121.30,9.58 121.30,7.24 121.30,7.24
             121.30,7.24 119.69,7.24 119.69,7.24
             119.69,7.24 119.69,4.76 119.69,4.76
             119.69,4.76 121.55,4.76 121.55,4.76
             121.55,4.76 121.55,3.49 121.55,3.49
             121.55,3.49 114.12,3.49 114.12,3.49
             114.12,3.49 114.12,15.60 114.12,15.60
             114.12,15.60 116.32,15.60 116.32,15.60
             116.32,15.60 116.32,15.57 116.32,15.57
             116.32,15.57 116.32,15.57 116.32,15.57
             116.32,15.57 116.32,15.57 116.32,15.57 Z
           M 116.32,4.76
           C 116.32,4.76 117.72,4.76 117.72,4.76
             117.72,4.76 117.72,7.27 117.72,7.27
             117.72,7.27 116.32,7.27 116.32,7.27
             116.32,7.27 116.32,4.76 116.32,4.76 Z
           M 116.32,8.51
           C 116.32,8.51 119.55,8.51 119.55,8.51
             119.55,8.51 119.55,10.76 119.55,10.76
             119.55,10.76 116.37,10.76 116.37,10.76
             116.37,10.76 116.32,8.51 116.32,8.51 Z
           M 116.32,12.05
           C 116.32,12.05 117.72,12.05 117.72,12.05
             117.72,12.05 117.72,14.31 117.72,14.31
             117.72,14.31 116.32,14.31 116.32,14.31
             116.32,14.31 116.32,12.05 116.32,12.05 Z
           M 113.87,14.87
           C 113.87,14.87 113.87,13.57 113.87,13.57
             113.87,13.57 113.36,13.57 113.36,13.57
             113.36,13.57 113.36,5.13 113.36,5.13
             113.36,5.13 110.02,5.13 110.02,5.13
             110.64,4.25 110.86,2.71 110.86,2.71
             110.86,2.71 108.50,2.65 108.50,2.65
             108.44,3.63 107.94,4.85 107.82,5.13
             107.82,5.13 105.97,5.13 105.97,5.13
             105.97,5.13 105.97,13.57 105.97,13.57
             105.97,13.57 105.01,13.57 105.01,13.57
             105.01,13.57 105.01,14.84 105.01,14.84
             105.01,14.84 105.97,14.84 105.97,14.84
             105.97,14.84 105.97,17.09 105.97,17.09
             105.97,17.09 105.94,21.94 104.84,25.06
             104.84,25.06 107.15,25.06 107.15,25.06
             107.15,25.06 108.19,20.67 108.19,16.08
             108.19,16.08 108.19,14.84 108.19,14.84
             108.19,14.84 109.00,14.84 109.00,14.84
             109.00,14.84 109.00,21.12 109.00,21.12
             109.00,21.12 110.41,21.12 110.41,21.12
             110.41,21.12 110.41,14.84 110.41,14.84
             110.41,14.84 111.20,14.84 111.20,14.84
             111.20,14.84 111.20,23.06 111.20,23.06
             111.20,23.06 111.37,23.96 110.27,23.96
             110.27,23.96 109.85,23.96 109.85,23.96
             109.85,23.96 109.85,25.46 109.85,25.46
             109.85,25.46 110.97,25.46 110.97,25.46
             110.97,25.46 113.39,25.91 113.39,23.12
             113.39,23.12 113.39,14.84 113.39,14.84
             113.39,14.84 113.87,14.87 113.87,14.87
             113.87,14.87 113.87,14.87 113.87,14.87 Z
           M 111.23,13.57
           C 111.23,13.57 108.22,13.57 108.22,13.57
             108.22,13.57 108.22,6.39 108.22,6.39
             108.22,6.39 111.23,6.39 111.23,6.39
             111.23,6.39 111.23,13.57 111.23,13.57 Z
           M 110.58,12.17
           C 110.58,12.17 110.58,10.05 110.19,8.56
             110.19,8.56 108.84,8.51 108.84,8.51
             108.84,8.51 109.03,9.94 109.03,12.08
             109.03,12.08 110.58,12.17 110.58,12.17 Z
           M 81.02,19.54
           C 81.02,19.54 81.02,12.45 81.02,12.45
             81.02,12.45 76.09,12.45 76.09,12.45
             76.09,12.45 76.09,14.22 76.09,14.22
             76.09,14.22 78.40,14.22 78.40,14.22
             78.40,14.22 78.40,20.56 78.40,20.56
             78.40,20.56 76.43,22.36 76.43,22.36
             76.43,22.36 76.43,25.68 76.43,25.68
             76.43,25.68 79.75,22.36 79.75,22.36
             80.82,25.43 85.71,25.37 85.71,25.37
             85.71,25.37 99.02,25.37 99.02,25.37
             99.02,25.37 99.13,22.87 99.13,22.87
             99.13,22.87 85.69,22.87 85.69,22.87
             82.28,22.87 81.30,20.89 81.02,19.54
             81.02,19.54 81.02,19.54 81.02,19.54 Z
           M 81.10,7.07
           C 79.68,5.84 78.15,4.75 76.52,3.83
             76.52,3.83 76.52,6.76 76.52,6.76
             78.37,7.69 81.13,9.69 81.13,9.69
             81.13,9.69 81.10,7.07 81.10,7.07
             81.10,7.07 81.10,7.07 81.10,7.07 Z
           M 82.14,8.96
           C 82.14,8.96 82.14,11.35 82.14,11.35
             84.81,10.28 86.98,9.01 88.64,7.89
             88.92,8.36 89.20,8.82 89.40,9.24
             87.06,11.04 82.25,13.21 82.25,13.21
             82.25,13.21 82.25,15.63 82.25,15.63
             85.74,14.22 88.44,12.48 90.16,11.18
             90.41,12.03 90.38,12.48 90.38,12.48
             90.38,12.48 90.38,12.93 90.38,12.93
             88.50,14.73 82.37,17.49 82.37,17.49
             82.37,17.49 82.37,19.88 82.37,19.88
             85.22,18.73 87.92,17.22 90.38,15.38
             90.38,15.38 90.38,17.71 90.38,17.71
             90.38,19.68 86.73,19.26 86.73,19.26
             86.73,19.26 86.73,21.80 86.73,21.80
             86.73,21.80 89.54,21.80 89.54,21.80
             93.70,21.80 93.34,16.47 93.34,16.47
             93.34,16.47 93.25,14.39 93.25,14.39
             94.74,16.29 96.44,18.02 98.32,19.54
             98.32,19.54 98.37,16.22 98.37,16.22
             98.37,16.22 95.45,14.00 93.87,11.74
             93.87,11.74 97.81,9.15 97.81,9.15
             97.81,9.15 97.81,6.42 97.81,6.42
             97.81,6.42 92.61,9.94 92.61,9.94
             91.99,8.14 91.20,6.79 90.83,6.34
             90.83,6.34 91.79,5.52 91.79,5.52
             91.79,5.52 98.88,5.52 98.88,5.52
             98.88,5.52 98.88,3.78 98.88,3.78
             98.88,3.78 82.03,3.78 82.03,3.78
             82.03,3.78 82.03,5.46 82.03,5.46
             82.03,5.46 88.61,5.46 88.61,5.46
             86.58,6.83 84.43,7.99 82.17,8.93
             82.17,8.93 82.14,8.96 82.14,8.96
             82.14,8.96 82.14,8.96 82.14,8.96 Z
           M 151.76,20.22
           C 150.28,19.59 148.88,18.77 147.60,17.80
             147.60,17.80 152.89,17.80 152.89,17.80
             152.89,17.80 152.89,16.02 152.89,16.02
             152.89,16.02 146.42,16.02 146.42,16.02
             146.42,16.02 146.42,11.66 146.42,11.66
             146.42,11.66 143.43,11.66 143.43,11.66
             143.43,11.66 143.43,16.02 143.43,16.02
             143.43,16.02 136.35,16.02 136.35,16.02
             136.35,16.02 136.35,17.80 136.35,17.80
             136.35,17.80 142.17,17.80 142.17,17.80
             140.36,19.43 138.31,20.78 136.09,21.80
             136.09,21.80 136.09,24.33 136.09,24.33
             136.09,24.33 140.87,22.64 143.46,19.54
             143.46,19.54 143.46,25.15 143.46,25.15
             143.46,25.15 146.44,25.15 146.44,25.15
             146.44,25.15 146.44,19.43 146.44,19.43
             148.19,20.89 151.79,22.95 151.79,22.95
             151.79,22.95 151.76,20.22 151.76,20.22
             151.76,20.22 151.76,20.22 151.76,20.22 Z
           M 141.07,12.03
           C 141.07,12.03 138.43,12.03 138.43,12.03
             138.93,12.98 139.66,14.95 139.66,14.95
             139.66,14.95 142.34,14.95 142.34,14.95
             142.10,13.91 141.68,12.92 141.10,12.03
             141.10,12.03 141.07,12.03 141.07,12.03 Z
           M 148.89,12.03
           C 148.89,12.03 148.33,13.77 147.77,15.12
             147.77,15.12 150.41,15.12 150.41,15.12
             150.41,15.12 151.20,13.71 151.59,12.03
             151.59,12.03 148.89,12.03 148.89,12.03 Z
           M 153.79,8.45
           C 153.79,8.45 137.36,8.45 137.36,8.45
             136.18,10.25 134.91,10.79 134.91,10.79
             134.91,10.79 134.91,14.76 134.91,14.76
             134.91,14.76 137.64,12.98 139.24,10.22
             139.24,10.22 153.79,10.22 153.79,10.22
             153.79,10.22 153.79,12.36 153.79,12.36
             153.79,18.36 153.76,21.37 153.34,22.39
             153.05,23.15 152.21,23.40 151.90,23.40
             151.90,23.40 150.02,23.40 150.02,23.40
             150.02,23.40 150.02,25.48 150.02,25.48
             150.02,25.48 152.60,25.48 152.60,25.48
             154.35,25.48 155.98,24.61 156.40,22.61
             156.84,19.21 156.99,15.79 156.85,12.36
             156.85,12.36 156.85,8.42 156.85,8.42
             156.85,8.42 153.76,8.42 153.76,8.42
             153.76,8.42 153.76,8.45 153.76,8.45
             153.76,8.45 153.79,8.45 153.79,8.45
             153.79,8.45 153.79,8.45 153.79,8.45
             153.79,8.45 153.79,8.45 153.79,8.45 Z
           M 157.47,4.34
           C 157.47,4.34 152.41,4.34 152.41,4.34
             152.41,4.34 152.41,2.65 152.41,2.65
             152.41,2.65 149.12,2.65 149.12,2.65
             149.12,2.65 149.12,4.34 149.12,4.34
             149.12,4.34 142.65,4.34 142.65,4.34
             142.65,4.34 142.65,2.65 142.65,2.65
             142.65,2.65 139.35,2.65 139.35,2.65
             139.35,2.65 139.35,4.34 139.35,4.34
             139.35,4.34 134.71,4.34 134.71,4.34
             134.71,4.34 134.71,6.11 134.71,6.11
             134.71,6.11 139.35,6.11 139.35,6.11
             139.35,6.11 139.35,7.07 139.35,7.07
             139.35,7.07 142.62,7.07 142.62,7.07
             142.62,7.07 142.62,6.11 142.62,6.11
             142.62,6.11 149.09,6.11 149.09,6.11
             149.09,6.11 149.09,7.07 149.09,7.07
             149.09,7.07 152.38,7.07 152.38,7.07
             152.38,7.07 152.38,6.11 152.38,6.11
             152.38,6.11 157.44,6.11 157.44,6.11
             157.44,6.11 157.47,4.34 157.47,4.34 Z
           M 184.56,3.66
           C 184.56,3.66 167.12,3.66 167.12,3.66
             167.12,3.66 167.12,14.47 167.12,14.47
             167.12,17.23 167.06,21.12 165.71,25.65
             165.71,25.65 169.31,25.65 169.31,25.65
             169.31,25.65 170.21,23.40 170.38,17.54
             170.38,17.54 181.24,17.54 181.24,17.54
             181.24,17.54 181.24,22.92 181.24,22.92
             181.24,23.26 180.99,23.37 180.84,23.43
             180.84,23.43 178.93,23.43 178.93,23.43
             178.93,23.43 178.93,25.68 178.93,25.68
             178.93,25.68 181.32,25.68 181.32,25.68
             184.95,25.68 184.56,22.08 184.56,22.08
             184.56,22.08 184.56,3.66 184.56,3.66
             184.56,3.66 184.56,3.66 184.56,3.66 Z
           M 181.24,15.77
           C 181.24,15.77 170.41,15.77 170.41,15.77
             170.41,15.77 170.41,11.55 170.41,11.55
             170.41,11.55 181.24,11.55 181.24,11.55
             181.24,11.55 181.24,15.77 181.24,15.77 Z
           M 181.24,9.77
           C 181.24,9.77 170.41,9.77 170.41,9.77
             170.41,9.77 170.41,5.44 170.41,5.44
             170.41,5.44 181.24,5.44 181.24,5.44
             181.24,5.44 181.24,9.77 181.24,9.77 Z
           M 207.51,3.16
           C 207.51,3.16 201.52,3.16 201.52,3.16
             198.84,5.01 196.00,6.61 193.02,7.94
             193.02,7.94 193.02,11.12 193.02,11.12
             194.01,10.76 194.99,10.28 195.98,9.83
             195.98,9.83 196.96,9.32 196.96,9.32
             200.00,7.66 202.19,5.94 203.38,4.90
             203.38,4.90 205.68,4.90 205.68,4.90
             206.81,5.89 208.83,7.49 211.65,9.07
             211.65,9.07 213.11,9.83 213.11,9.83
             214.05,10.30 215.02,10.74 216.01,11.12
             216.01,11.12 216.01,7.97 216.01,7.97
             214.82,7.41 209.54,4.87 207.51,3.18
             207.51,3.18 207.51,3.16 207.51,3.16
             207.51,3.16 207.51,3.16 207.51,3.16 Z
           M 212.57,12.08
           C 212.57,12.08 212.57,10.34 212.57,10.34
             212.57,10.34 196.48,10.34 196.48,10.34
             196.48,10.34 196.48,12.08 196.48,12.08
             196.48,12.08 212.57,12.08 212.57,12.08 Z
           M 210.32,20.30
           C 210.32,20.30 210.75,21.71 210.75,21.71
             210.75,21.71 210.41,21.85 210.41,21.85
             207.05,22.51 203.64,22.86 200.23,22.89
             200.23,22.89 199.07,22.92 199.07,22.92
             199.07,22.92 200.00,22.16 200.00,22.16
             201.80,20.67 202.36,18.95 202.81,17.80
             202.81,17.80 202.93,17.57 202.93,17.57
             202.93,17.57 215.87,17.57 215.87,17.57
             215.87,17.57 215.87,15.83 215.87,15.83
             215.87,15.83 193.22,15.83 193.22,15.83
             193.22,15.83 193.22,17.57 193.22,17.57
             193.22,17.57 198.62,17.57 198.62,17.57
             198.62,17.57 198.54,18.05 198.54,18.05
             198.12,20.22 196.57,22.00 194.49,22.72
             194.49,22.72 194.40,22.75 194.40,22.75
             194.40,22.75 194.07,22.81 194.07,22.81
             194.07,22.81 194.04,25.46 194.04,25.46
             199.75,25.73 205.47,25.26 211.06,24.05
             211.06,24.05 211.48,23.96 211.48,23.96
             211.48,23.96 212.04,25.34 212.04,25.34
             212.04,25.34 215.89,25.34 215.89,25.34
             215.89,25.34 213.78,20.27 213.78,20.27
             213.78,20.27 210.32,20.30 210.32,20.30
             210.32,20.30 210.32,20.30 210.32,20.30 Z" />
  <path id="path1"
        d="M 16.61,19.06
           C 16.82,19.07 16.85,18.85 16.64,18.83
             4.25,15.30 8.29,6.74 4.49,7.83
             0.01,9.97 4.89,19.52 16.61,19.06 Z
           M 18.48,17.17
           C 18.60,17.26 18.69,17.18 18.63,17.05
             16.27,12.16 16.33,7.63 16.53,3.67
             16.63,-0.64 12.18,0.29 12.46,3.94
             12.89,8.48 15.23,13.93 18.48,17.17
             18.48,17.17 18.48,17.17 18.48,17.17 Z
           M 17.40,17.94
           C 17.52,17.97 17.58,17.80 17.45,17.74
             11.80,14.28 11.70,8.12 11.36,5.84
             10.74,1.40 7.43,3.19 7.44,6.74
             7.38,9.95 10.52,15.72 17.40,17.94
             17.40,17.94 17.40,17.94 17.40,17.94 Z
           M 16.41,20.39
           C 16.60,20.33 16.54,20.15 16.37,20.17
             14.66,20.33 13.41,20.45 11.60,20.23
             10.06,20.12 8.14,19.55 7.21,18.97
             2.27,16.45 3.61,12.61 1.52,13.78
             -2.42,16.63 2.84,24.61 16.41,20.39
             16.41,20.39 16.41,20.39 16.41,20.39 Z
           M 19.92,0.00
           C 18.81,-0.08 17.76,0.92 17.94,3.22
             18.05,6.68 18.90,12.34 19.80,16.86
             19.82,16.92 19.87,16.94 19.92,16.94
             19.97,16.94 20.02,16.92 20.03,16.86
             20.93,12.34 21.80,6.75 21.90,3.29
             22.09,0.98 21.03,-0.08 19.92,0.00 Z
           M 15.09,24.25
           C 15.09,24.25 15.09,25.27 15.09,25.27
             15.09,25.27 15.31,25.27 15.31,25.27
             15.64,25.27 15.86,25.07 15.86,24.76
             15.86,24.44 15.64,24.25 15.31,24.25
             15.31,24.25 15.09,24.25 15.09,24.25
             15.09,24.25 15.09,24.25 15.09,24.25 Z
           M 14.51,23.74
           C 14.51,23.74 15.28,23.74 15.28,23.74
             15.99,23.74 16.40,24.15 16.40,24.75
             16.40,25.34 15.99,25.77 15.28,25.77
             15.28,25.77 14.51,25.77 14.51,25.77
             14.51,25.77 14.51,23.74 14.51,23.74 Z
           M 12.86,24.24
           C 12.86,24.24 12.28,24.24 12.28,24.24
             12.28,24.24 12.28,23.74 12.28,23.74
             12.28,23.74 14.01,23.74 14.01,23.74
             14.01,23.74 14.01,24.24 14.01,24.24
             14.01,24.24 13.41,24.24 13.41,24.24
             13.41,24.24 13.41,25.76 13.41,25.76
             13.41,25.76 12.87,25.76 12.87,25.76
             12.87,25.76 12.86,24.24 12.86,24.24 Z
           M 10.15,25.47
           C 10.15,25.47 10.45,25.09 10.45,25.09
             10.63,25.25 10.86,25.34 11.10,25.34
             11.25,25.34 11.33,25.29 11.33,25.21
             11.33,25.21 11.33,25.20 11.33,25.20
             11.33,25.10 11.26,25.06 10.99,24.99
             10.57,24.89 10.25,24.78 10.25,24.36
             10.25,23.98 10.54,23.71 11.02,23.71
             11.35,23.71 11.62,23.81 11.83,23.98
             11.83,23.98 11.56,24.37 11.56,24.37
             11.40,24.25 11.20,24.18 11.00,24.17
             10.87,24.17 10.80,24.23 10.80,24.30
             10.80,24.40 10.87,24.45 11.15,24.51
             11.61,24.61 11.88,24.76 11.88,25.13
             11.88,25.13 11.88,25.14 11.88,25.14
             11.88,25.56 11.57,25.80 11.08,25.80
             10.74,25.80 10.40,25.70 10.15,25.47
             10.15,25.47 10.15,25.47 10.15,25.47
             10.15,25.47 10.15,25.47 10.15,25.47 Z
           M 8.12,23.75
           C 8.12,23.75 9.73,23.75 9.73,23.75
             9.73,23.75 9.73,24.22 9.73,24.22
             9.73,24.22 8.67,24.22 8.67,24.22
             8.67,24.22 8.67,24.53 8.67,24.53
             8.67,24.53 9.62,24.53 9.62,24.53
             9.62,24.53 9.62,24.97 9.62,24.97
             9.62,24.97 8.67,24.97 8.67,24.97
             8.67,24.97 8.67,25.30 8.67,25.30
             8.67,25.30 9.73,25.30 9.73,25.30
             9.73,25.30 9.73,25.77 9.73,25.77
             9.73,25.77 8.12,25.77 8.12,25.77
             8.12,25.77 8.12,23.75 8.12,23.75
             8.12,23.75 8.12,23.75 8.12,23.75
             8.12,23.75 8.12,23.75 8.12,23.75 Z
           M 29.97,25.42
           C 29.97,25.42 30.78,24.78 30.78,24.78
             30.97,24.63 31.05,24.52 31.05,24.39
             31.05,24.25 30.95,24.16 30.81,24.16
             30.67,24.16 30.54,24.25 30.38,24.45
             30.38,24.45 29.98,24.11 29.98,24.11
             30.21,23.81 30.43,23.63 30.85,23.63
             31.32,23.63 31.65,23.93 31.65,24.34
             31.65,24.70 31.47,24.88 31.14,25.11
             31.14,25.11 30.78,25.38 30.78,25.38
             30.78,25.38 31.67,25.38 31.67,25.38
             31.67,25.38 31.67,25.87 31.67,25.87
             31.67,25.87 29.97,25.87 29.97,25.87
             29.97,25.87 29.97,25.42 29.97,25.42
             29.97,25.42 29.97,25.42 29.97,25.42 Z
           M 27.71,25.27
           C 27.71,24.99 27.84,24.83 28.07,24.73
             27.91,24.64 27.77,24.50 27.77,24.25
             27.77,23.90 28.10,23.64 28.58,23.64
             29.06,23.64 29.39,23.90 29.39,24.25
             29.40,24.45 29.29,24.64 29.11,24.73
             29.32,24.83 29.47,24.98 29.47,25.26
             29.47,25.66 29.11,25.92 28.58,25.92
             28.07,25.92 27.71,25.65 27.71,25.27
             27.71,25.27 27.71,25.27 27.71,25.27
             27.71,25.27 27.71,25.27 27.71,25.27 Z
           M 28.89,25.21
           C 28.89,25.05 28.77,24.96 28.59,24.96
             28.41,24.96 28.29,25.06 28.29,25.20
             28.29,25.20 28.29,25.21 28.29,25.21
             28.29,25.34 28.39,25.46 28.59,25.46
             28.79,25.46 28.89,25.34 28.89,25.21
             28.89,25.21 28.89,25.21 28.89,25.21 Z
           M 28.85,24.32
           C 28.85,24.19 28.75,24.08 28.59,24.08
             28.43,24.08 28.33,24.19 28.33,24.31
             28.33,24.31 28.33,24.32 28.33,24.32
             28.33,24.47 28.43,24.57 28.59,24.57
             28.74,24.57 28.85,24.47 28.85,24.32
             28.85,24.32 28.85,24.32 28.85,24.32
             28.85,24.32 28.85,24.32 28.85,24.32 Z
           M 26.58,24.95
           C 26.46,25.07 26.30,25.14 26.13,25.13
             25.72,25.13 25.41,24.86 25.41,24.43
             25.41,23.95 25.77,23.63 26.27,23.63
             26.57,23.63 26.77,23.72 26.93,23.89
             27.08,24.04 27.18,24.29 27.18,24.70
             27.18,25.42 26.84,25.92 26.19,25.92
             25.92,25.92 25.65,25.83 25.44,25.65
             25.44,25.65 25.71,25.24 25.71,25.24
             25.84,25.35 26.01,25.41 26.18,25.41
             26.49,25.41 26.57,25.12 26.58,24.95
             26.58,24.95 26.58,24.95 26.58,24.95 Z
           M 26.59,24.40
           C 26.59,24.23 26.47,24.10 26.29,24.10
             26.11,24.10 25.99,24.23 25.99,24.40
             25.99,24.57 26.11,24.70 26.29,24.70
             26.47,24.70 26.59,24.57 26.59,24.40 Z
           M 24.16,24.22
           C 24.16,24.22 23.81,24.31 23.81,24.31
             23.81,24.31 23.70,23.84 23.70,23.84
             23.70,23.84 24.33,23.65 24.33,23.65
             24.33,23.65 24.76,23.65 24.76,23.65
             24.76,23.65 24.76,25.87 24.76,25.87
             24.76,25.87 24.17,25.87 24.17,25.87
             24.17,25.87 24.16,24.22 24.16,24.22
             24.16,24.22 24.16,24.22 24.16,24.22 Z
           M 33.83,24.42
           C 32.54,25.84 35.09,25.81 34.88,26.97
             34.79,27.48 34.03,28.75 33.73,29.23
             32.45,31.04 31.18,32.35 29.51,33.55
             26.24,35.54 23.79,35.92 22.58,35.21
             21.73,34.72 21.36,32.97 21.28,31.14
             20.92,23.69 20.93,23.39 20.93,23.39
             20.93,23.10 20.95,22.87 21.05,22.70
             21.15,22.51 21.32,22.38 21.48,22.27
             21.48,22.26 21.49,22.25 21.50,22.25
             21.53,22.23 21.56,22.20 21.59,22.18
             21.59,22.18 21.59,22.18 21.59,22.18
             22.18,21.71 22.55,21.00 22.55,20.20
             22.55,18.78 21.36,17.63 19.90,17.63
             18.43,17.63 17.24,18.78 17.24,20.20
             17.24,21.14 17.76,21.96 18.54,22.41
             18.64,22.49 18.72,22.59 18.78,22.70
             18.88,22.87 18.91,23.10 18.91,23.39
             18.91,23.39 18.90,23.60 18.56,31.14
             18.48,32.97 18.11,34.72 17.26,35.21
             16.04,35.92 13.59,35.54 10.33,33.55
             8.66,32.35 7.38,31.04 6.11,29.23
             5.80,28.75 5.04,27.48 4.95,26.97
             4.75,25.81 7.30,25.84 6.00,24.42
             4.36,22.59 -0.18,18.07 0.24,21.74
             0.24,21.74 0.25,21.93 0.25,21.93
             1.12,32.03 9.60,39.96 19.92,39.96
             19.92,39.96 19.92,39.96 19.92,39.96
             30.24,39.96 38.71,32.03 39.58,21.93
             39.58,21.93 39.60,21.74 39.60,21.74
             40.02,18.07 35.48,22.59 33.83,24.42
             33.83,24.42 33.83,24.42 33.83,24.42 Z
           M 19.90,19.48
           C 20.31,19.48 20.65,19.80 20.65,20.20
             20.65,20.60 20.31,20.93 19.90,20.93
             19.48,20.93 19.15,20.60 19.15,20.20
             19.15,19.80 19.48,19.48 19.90,19.48 Z
           M 23.22,19.06
           C 23.02,19.07 22.98,18.85 23.19,18.83
             35.58,15.30 31.55,6.74 35.35,7.83
             39.83,9.97 34.94,19.52 23.22,19.06
             23.22,19.06 23.22,19.06 23.22,19.06 Z
           M 21.35,17.17
           C 21.24,17.26 21.14,17.18 21.21,17.05
             23.57,12.16 23.50,7.63 23.31,3.67
             23.20,-0.64 27.65,0.29 27.37,3.94
             26.94,8.48 24.60,13.93 21.35,17.17
             21.35,17.17 21.35,17.17 21.35,17.17 Z
           M 22.44,17.94
           C 22.31,17.97 22.26,17.80 22.38,17.74
             28.03,14.28 28.14,8.12 28.48,5.84
             29.10,1.40 32.41,3.19 32.40,6.74
             32.45,9.95 29.31,15.72 22.44,17.94
             22.44,17.94 22.44,17.94 22.44,17.94 Z
           M 23.42,20.39
           C 23.23,20.33 23.29,20.15 23.47,20.17
             25.18,20.33 26.43,20.45 28.24,20.23
             29.77,20.12 31.70,19.55 32.63,18.97
             37.56,16.45 36.23,12.61 38.32,13.78
             42.26,16.63 36.99,24.61 23.42,20.39
             23.42,20.39 23.42,20.39 23.42,20.39 Z" />
</svg>
